# xmcd
#
# Track frame offsets:
#	150
#	17721
#	30771
#	49071
#	65196
#	80496
#	102246
#	125049
#	142599
#	162174
#	177174
#	198324
#	213924
#	232224
#	250299
#	267399
#	284124
#	300474
#
# Disc length: 4026 seconds
#
# Revision: 0
# Processed by: cddbd v1.5.2PL0 Copyright (c) Steve Scherf et al.
# Submitted via: audiograbber 1.83.01
#
DISCID=020fb812
DTITLE=Various Artist - KK0306
DYEAR=1900
DGENRE=Karaoke
TTITLE0=Taylor Swift - Love Story
TTITLE1=Taylor Swift - Picture to Burn
TTITLE2=Taylor Swift - Should've Said No
TTITLE3=Taylor Swift - Teardrops On My Guitar
TTITLE4=Taylor Swift - Our Song
TTITLE5=Sugarland - Stay
TTITLE6=Alan Jackson - Good Time
TTITLE7=John Cougar Mellencamp - Our Country
TTITLE8=Martina McBride - Anyway
TTITLE9=Carrie Underwood - Before He Cheats
TTITLE10=Carrie Underwood - Just a Dream
TTITLE11=Carrie Underwood - I'll Stand By You
TTITLE12=Carrie Underwood - Last Name
TTITLE13=Carrie Underwood - Don't Forget to Remember Me
TTITLE14=Carrie Underwood - Jesus, Take the Wheel
TTITLE15=Trace Adkins - You're Gonna Miss This
TTITLE16=Blake Shelton - The More I Drink
TTITLE17=Data Track - Data Track
EXTD=
EXTT0=
EXTT1=
EXTT2=
EXTT3=
EXTT4=
EXTT5=
EXTT6=
EXTT7=
EXTT8=
EXTT9=
EXTT10=
EXTT11=
EXTT12=
EXTT13=
EXTT14=
EXTT15=
EXTT16=
EXTT17=
PLAYORDER=
